<?xml version="1.0" standalone="no"?>
<!DOCTYPE svg PUBLIC "-//W3C//DTD SVG 20010904//EN"
 "http://www.w3.org/TR/2001/REC-SVG-20010904/DTD/svg10.dtd">
<svg version="1.0" xmlns="http://www.w3.org/2000/svg"
 width="493.000000pt" height="493.000000pt" viewBox="0 0 493.000000 493.000000"
 preserveAspectRatio="xMidYMid meet">

<g transform="translate(0.000000,493.000000) scale(0.100000,-0.100000)"
fill="#000000" stroke="none">
<path d="M2485 2910 c-4 -6 -4 -24 0 -40 9 -40 -27 -100 -59 -100 -30 0 -74
48 -78 84 -2 16 -9 31 -15 34 -10 3 -13 -23 -13 -108 0 -103 1 -112 18 -105
95 40 206 46 301 16 l61 -19 0 110 c0 83 -3 109 -12 105 -7 -2 -13 -16 -13
-30 -1 -30 -50 -87 -75 -87 -18 0 -41 22 -59 58 -9 16 -9 27 -1 43 9 15 8 24
-1 35 -13 16 -45 19 -54 4z"/>
<path d="M2404 2570 c-68 -27 -123 -76 -159 -141 -26 -47 -30 -64 -30 -134 0
-77 17 -145 36 -145 5 0 27 11 48 24 l38 24 -10 50 c-37 180 177 305 311 182
l34 -31 36 23 c20 13 40 26 46 30 16 11 -51 76 -109 105 -69 36 -170 41 -241
13z"/>
<path d="M950 2290 l0 -290 55 0 55 0 0 49 c0 48 2 51 190 286 105 131 190
239 190 241 0 2 -33 4 -72 4 l-73 -1 -115 -147 -115 -147 -3 148 -3 147 -54 0
-55 0 0 -290z"/>
<path d="M1580 2513 l0 -68 246 -222 c135 -123 250 -223 255 -223 5 0 9 125 9
290 l0 290 -55 0 -55 0 -2 -177 -3 -177 -192 177 c-106 97 -194 177 -197 177
-4 0 -6 -30 -6 -67z"/>
<path d="M2998 2530 l53 -50 89 0 c83 0 90 -2 119 -29 26 -24 31 -36 31 -76 0
-38 -5 -52 -29 -76 -28 -28 -33 -29 -120 -29 l-91 0 0 58 c0 61 -3 66 -87 136
l-23 19 0 -241 0 -242 55 0 55 0 0 85 0 85 83 0 c105 0 173 20 214 62 41 42
53 76 53 146 0 71 -29 124 -88 167 l-44 30 -161 3 -162 2 53 -50z"/>
<path d="M3530 2291 l0 -291 55 0 55 0 2 169 3 170 188 -170 c103 -93 191
-169 195 -169 7 0 8 128 1 133 -2 2 -110 100 -239 218 -129 118 -241 218 -247
222 -10 7 -13 -53 -13 -282z"/>
<path d="M3920 2453 l0 -128 54 -47 c30 -27 56 -48 58 -48 2 0 2 78 1 172 l-2
173 -55 3 -56 3 0 -128z"/>
<path d="M1580 2177 l0 -177 55 0 55 0 -1 128 -1 127 -54 49 -54 49 0 -176z"/>
<path d="M2597 2273 l-79 -48 81 -5 c45 -3 81 -9 81 -15 0 -21 -42 -66 -80
-85 -51 -26 -122 -26 -177 1 l-44 21 -45 -30 -46 -29 38 -32 c21 -17 60 -38
87 -47 66 -22 177 -15 234 14 95 49 163 153 163 250 l0 52 -68 0 c-63 0 -73
-3 -145 -47z"/>
<path d="M1211 2174 l-33 -44 57 -65 57 -65 80 0 80 0 -91 99 c-50 54 -96 103
-103 109 -10 7 -22 -1 -47 -34z"/>
</g>
</svg>
