<?xml version="1.0" standalone="no"?>
<!DOCTYPE svg PUBLIC "-//W3C//DTD SVG 20010904//EN"
 "http://www.w3.org/TR/2001/REC-SVG-20010904/DTD/svg10.dtd">
<svg version="1.0" xmlns="http://www.w3.org/2000/svg"
 width="493.000000pt" height="493.000000pt" viewBox="0 0 493.000000 493.000000"
 preserveAspectRatio="xMidYMid meet">

<g transform="translate(0.000000,493.000000) scale(0.100000,-0.100000)"
fill="#000000" stroke="none">
<path d="M2408 3013 l2 -588 40 -40 c22 -23 53 -65 68 -94 15 -30 31 -53 35
-52 4 0 36 1 71 1 61 0 64 1 70 27 9 33 54 99 95 137 l31 30 0 583 c0 413 -3
583 -11 583 -19 0 -116 -107 -139 -154 -20 -43 -25 -46 -59 -46 -35 0 -40 3
-57 42 -19 42 -121 158 -139 158 -6 0 -9 -211 -7 -587z m93 429 c16 -25 29
-54 29 -64 0 -16 10 -18 78 -18 l79 0 11 38 c6 20 25 53 41 72 l30 35 1 -156
0 -155 -31 -30 c-17 -16 -45 -53 -61 -81 -28 -49 -33 -53 -66 -53 -33 0 -39 4
-60 43 -13 24 -41 61 -62 83 l-39 39 -1 153 c0 168 2 171 51 94z m18 -402 c5
-14 12 -33 15 -42 4 -15 17 -18 75 -18 l70 0 24 53 c13 28 34 63 45 77 l21 25
1 -153 0 -152 -46 -57 c-25 -31 -53 -71 -62 -89 -14 -29 -21 -34 -52 -34 -33
0 -38 4 -58 45 -12 25 -40 65 -62 89 l-40 43 0 154 1 154 29 -35 c16 -19 33
-46 39 -60z m2 -384 l20 -46 73 0 c72 0 74 1 79 28 3 15 20 47 39 72 l33 45 3
-152 3 -152 -40 -42 c-22 -24 -49 -63 -61 -86 -19 -39 -25 -43 -59 -43 -32 0
-39 4 -53 34 -9 18 -37 58 -62 89 l-46 57 0 151 0 151 25 -30 c14 -17 35 -51
46 -76z"/>
<path d="M1330 2025 c0 -18 5 -25 20 -25 19 0 20 -7 20 -104 0 -75 4 -106 13
-109 32 -11 37 5 37 109 0 97 1 104 20 104 15 0 20 7 20 25 0 24 -2 25 -65 25
-63 0 -65 -1 -65 -25z"/>
<path d="M1550 1921 c0 -94 3 -130 13 -133 27 -11 37 4 37 56 0 45 3 52 20 53
18 2 20 -4 20 -52 0 -52 10 -67 38 -58 9 3 12 39 12 134 l0 129 -25 0 c-24 0
-25 -3 -25 -55 0 -48 -2 -55 -20 -55 -18 0 -20 7 -20 55 0 52 -1 55 -25 55
l-25 0 0 -129z"/>
<path d="M1780 1921 c0 -94 3 -130 13 -133 25 -10 37 4 37 43 0 50 16 50 30 0
9 -33 25 -51 46 -51 2 0 4 24 4 53 0 28 2 82 6 118 7 84 -5 99 -82 99 l-54 0
0 -129z m90 39 c0 -33 -3 -40 -20 -40 -17 0 -20 7 -20 40 0 33 3 40 20 40 17
0 20 -7 20 -40z"/>
<path d="M2010 1920 c0 -117 2 -130 18 -131 86 -6 103 -4 113 7 17 21 1 34
-42 34 -38 0 -39 1 -39 34 0 31 2 34 28 31 15 -1 30 2 34 8 12 19 -4 37 -33
37 -25 0 -29 4 -29 29 0 28 3 30 43 33 34 2 42 7 42 23 0 18 -8 20 -67 23
l-68 3 0 -131z"/>
<path d="M2240 1920 l0 -130 65 0 c58 0 65 2 65 20 0 17 -7 20 -40 20 -22 0
-41 3 -41 8 -8 47 -3 56 26 57 23 0 31 5 33 23 3 18 -1 22 -26 22 -24 0 -31 5
-34 25 -7 32 -2 35 44 35 34 0 38 3 38 25 0 24 -2 25 -65 25 l-65 0 0 -130z"/>
<path d="M2550 2033 c0 -59 24 -239 33 -245 17 -11 47 11 48 35 0 12 6 40 13
62 l13 40 14 -63 c13 -62 40 -96 59 -75 8 8 30 186 30 238 0 18 -5 25 -19 25
-16 0 -21 -10 -26 -57 -10 -91 -11 -92 -24 -28 -7 33 -14 66 -16 73 -8 22 -35
12 -41 -15 -3 -16 -12 -48 -19 -73 l-13 -45 -1 50 c-1 28 -4 60 -7 73 -8 26
-44 31 -44 5z"/>
<path d="M2872 2038 c-8 -8 -12 -51 -12 -125 0 -125 1 -126 66 -126 58 0 64
13 64 134 0 97 -2 109 -19 119 -27 14 -84 13 -99 -2z m73 -120 c0 -81 -5 -94
-30 -85 -12 5 -15 24 -15 87 0 79 1 81 23 78 21 -3 22 -8 22 -80z"/>
<path d="M3087 2043 c-4 -3 -7 -61 -7 -129 0 -118 1 -122 23 -128 45 -12 105
-7 111 10 10 25 -2 34 -45 34 l-39 0 0 110 c0 100 -2 110 -18 110 -10 0 -22
-3 -25 -7z"/>
<path d="M3281 2043 c0 -5 12 -62 27 -128 26 -113 29 -120 53 -123 25 -3 26 0
53 120 14 68 26 127 26 131 0 5 -10 7 -22 5 -20 -3 -25 -13 -37 -75 -7 -40
-17 -73 -20 -73 -4 0 -13 34 -20 75 -11 69 -14 75 -37 75 -13 0 -24 -3 -23 -7z"/>
<path d="M3530 1920 c0 -117 2 -130 18 -131 86 -6 103 -4 113 7 17 21 1 34
-42 34 -37 0 -39 2 -39 30 0 24 5 31 28 36 50 13 52 44 1 44 -25 0 -29 4 -29
29 0 28 3 30 43 33 34 2 42 7 42 23 0 18 -8 20 -67 23 l-68 3 0 -131z"/>
<path d="M3778 2039 c-14 -8 -18 -23 -18 -69 l0 -58 42 -14 c35 -11 43 -17 43
-38 0 -16 -6 -26 -17 -28 -12 -2 -18 3 -18 17 0 24 -13 33 -34 25 -17 -7 -21
-50 -7 -73 10 -15 98 -18 113 -3 5 5 8 36 6 68 l-3 59 -37 9 c-33 8 -38 13
-38 38 0 33 25 39 35 8 3 -11 15 -20 26 -20 15 0 19 7 19 33 0 18 -5 38 -12
45 -15 15 -76 15 -100 1z"/>
<path d="M2340 1560 c0 -20 7 -20 270 -20 263 0 270 0 270 20 0 20 -7 20 -270
20 -263 0 -270 0 -270 -20z"/>
</g>
</svg>
