<?xml version="1.0" standalone="no"?>
<!DOCTYPE svg PUBLIC "-//W3C//DTD SVG 20010904//EN"
 "http://www.w3.org/TR/2001/REC-SVG-20010904/DTD/svg10.dtd">
<svg version="1.0" xmlns="http://www.w3.org/2000/svg"
 width="493.000000pt" height="493.000000pt" viewBox="0 0 493.000000 493.000000"
 preserveAspectRatio="xMidYMid meet">

<g transform="translate(0.000000,493.000000) scale(0.100000,-0.100000)"
fill="#000000" stroke="none">
<path d="M1992 3660 c-39 -113 -46 -252 -17 -361 6 -24 0 -31 -57 -72 -35 -25
-81 -64 -103 -86 l-39 -41 54 0 55 0 -115 -115 -115 -115 418 -418 417 -417
417 417 418 418 -80 80 -80 80 -1 113 c0 61 -6 135 -14 162 -21 82 -68 171
-107 206 l-38 33 -7 -48 c-6 -44 -49 -126 -66 -126 -4 0 -18 16 -31 36 -25 37
-88 92 -128 113 -22 11 -23 11 -17 -36 l6 -48 -136 135 -136 135 -149 -149
-148 -148 -17 43 c-9 24 -22 73 -30 109 l-13 65 -19 -40 c-14 -31 -18 -64 -19
-148 0 -84 -2 -104 -12 -92 -22 31 -55 178 -61 278 l-7 101 -23 -64z m621
-118 c64 -64 117 -120 117 -124 0 -4 -26 -17 -57 -29 -78 -30 -249 -34 -305
-6 -34 17 -41 17 -95 4 -32 -9 -60 -13 -63 -11 -4 5 271 284 280 284 3 0 58
-53 123 -118z m-551 -222 c14 -30 42 -77 62 -103 21 -27 36 -50 34 -50 -2 -1
-15 -13 -30 -26 l-26 -23 -31 42 c-60 83 -98 235 -85 339 l7 56 22 -90 c13
-49 34 -115 47 -145z m91 110 c20 -48 23 -66 14 -72 -21 -13 -34 -9 -41 15 -6
24 -8 133 -2 126 2 -2 15 -33 29 -69z m931 -30 c74 -163 70 -348 -10 -501
l-17 -34 -15 35 c-10 22 -15 64 -14 112 1 72 -1 79 -25 98 -22 17 -26 29 -29
83 -2 34 -10 81 -18 104 -14 39 -13 42 9 63 13 12 33 44 45 72 25 59 35 55 74
-32z m-225 11 c46 -57 79 -137 87 -208 6 -60 5 -63 -17 -72 -56 -21 -78 -74
-53 -126 l17 -36 -39 -40 c-45 -47 -115 -86 -171 -95 -37 -6 -39 -4 -51 30
-19 52 -55 76 -114 76 -50 0 -94 -17 -117 -44 -23 -27 -31 -18 -31 37 0 117
77 211 230 284 52 24 106 50 120 58 36 18 70 90 70 147 0 45 2 48 19 39 10 -6
33 -28 50 -50z m-123 -79 c-12 -23 -33 -37 -94 -61 -178 -72 -271 -162 -297
-287 l-10 -52 -48 44 c-47 42 -48 44 -33 66 29 40 20 67 -39 122 -59 55 -105
113 -105 132 0 14 163 68 205 67 17 0 50 -8 75 -18 62 -24 201 -16 290 17 72
26 82 20 56 -30z m-725 -124 c7 -17 28 -51 46 -75 18 -24 30 -43 25 -43 -4 0
-59 11 -122 23 l-115 23 70 52 c39 28 73 52 76 52 4 0 13 -14 20 -32z m211
-85 c35 -31 10 -93 -38 -93 -48 0 -70 55 -37 92 20 22 51 23 75 1z m766 -35
c17 -17 15 -64 -4 -82 -21 -22 -50 -20 -74 4 -24 24 -25 38 -4 68 17 24 62 30
82 10z m-973 -14 c36 -9 65 -20 65 -23 0 -4 -14 -32 -30 -63 l-30 -55 -93 -8
c-50 -4 -112 -10 -137 -15 -25 -5 -47 -6 -49 -4 -9 9 174 184 192 184 10 0 47
-7 82 -16z m107 -50 c3 -3 0 -29 -8 -57 -36 -131 -27 -323 21 -474 13 -40 20
-72 16 -72 -3 1 -37 35 -76 76 l-70 75 1 101 c2 116 21 203 66 295 29 59 38
69 50 56z m48 -77 c0 -112 33 -175 173 -332 183 -207 230 -341 168 -481 -11
-24 -24 -44 -28 -44 -5 0 -31 22 -57 49 l-49 50 17 40 c40 102 13 180 -127
368 -121 161 -150 240 -127 348 15 70 30 71 30 2z m108 -1 c29 -26 62 -74 62
-89 0 -3 -31 7 -70 22 l-70 26 0 41 c0 65 7 65 78 0z m942 -11 l65 -65 -61
-61 -61 -61 -42 37 c-22 21 -41 42 -41 49 0 6 14 38 30 71 16 33 30 68 30 78
0 28 12 21 80 -48z m-220 17 c0 -46 36 -117 86 -171 l53 -58 -35 -34 -36 -34
-33 38 c-19 22 -41 60 -49 85 -16 45 -22 173 -9 185 12 13 23 7 23 -11z m-65
-14 c-4 -13 -29 -57 -56 -98 -27 -41 -66 -109 -86 -150 -35 -69 -38 -82 -38
-160 0 -62 5 -94 18 -119 l17 -35 -47 -48 -47 -48 -13 24 c-25 47 -36 168 -23
245 18 110 63 191 171 308 52 57 98 103 102 103 5 0 5 -10 2 -22z m-380 -32
c38 -16 55 -42 55 -82 0 -26 1 -27 53 -21 28 3 61 9 71 13 15 6 13 -2 -13 -40
-18 -25 -41 -68 -52 -95 l-20 -47 -52 7 c-105 14 -122 24 -91 50 50 42 60 140
18 183 -15 14 -32 26 -38 26 -12 0 14 20 27 20 4 0 23 -6 42 -14z m-549 -23
c-17 -57 -27 -127 -29 -200 -1 -46 -2 -83 -3 -83 -7 0 -261 266 -256 268 24 8
195 30 240 31 46 1 53 -1 48 -16z m487 -23 c31 -24 40 -60 26 -97 -14 -37 -48
-73 -70 -73 -19 0 -100 74 -118 109 -12 21 1 31 14 11 10 -16 21 -12 35 16 14
25 53 53 76 54 6 0 23 -9 37 -20z m-246 -3 c12 -7 40 -40 63 -75 43 -64 115
-128 157 -138 13 -4 23 -8 23 -10 0 -9 -41 -84 -46 -84 -2 0 -19 17 -37 37
-18 21 -58 66 -90 102 -70 78 -128 182 -99 181 4 -1 17 -6 29 -13z m695 -124
c-26 -21 -116 -73 -126 -73 -13 0 2 30 62 122 l57 86 12 -61 c11 -54 11 -62
-5 -74z m-703 -147 c103 -137 141 -210 141 -271 0 -39 -10 -76 -26 -94 -3 -3
-35 28 -73 67 -51 52 -75 87 -91 129 -34 92 -60 202 -66 283 l-5 75 19 -40
c10 -22 56 -89 101 -149z m801 49 c0 -6 -51 -61 -114 -124 -112 -112 -114
-113 -127 -90 -17 32 -24 160 -11 186 6 11 28 25 49 31 22 6 61 27 88 46 l49
35 32 -37 c18 -20 33 -42 34 -47z m-421 -25 c20 0 22 -3 16 -27 -15 -60 -7
-209 14 -269 l21 -58 -57 -58 c-31 -32 -58 -56 -60 -54 -2 2 1 24 8 50 16 65
-2 152 -52 244 -21 41 -39 78 -39 84 0 6 12 31 26 56 25 42 28 44 63 38 20 -3
47 -6 60 -6z"/>
<path d="M2590 3155 c-46 -21 -97 -61 -111 -87 -11 -20 -10 -21 51 -14 54 6
67 12 95 42 35 37 72 44 120 22 28 -13 55 -55 55 -86 0 -10 -11 -41 -25 -68
-31 -61 -31 -63 0 -34 13 13 32 43 41 67 22 57 8 112 -38 145 -41 29 -137 35
-188 13z m8 -44 c-11 -18 -58 -36 -58 -22 0 7 51 40 63 41 4 0 2 -9 -5 -19z"/>
<path d="M2250 3301 l-85 -27 32 -17 c38 -20 127 -22 187 -5 56 16 64 25 28
33 -16 3 -38 15 -48 26 -20 23 -10 24 -114 -10z m100 -22 c0 -5 -21 -9 -47 -8
l-48 1 40 12 c41 13 55 12 55 -5z"/>
<path d="M1190 1855 c0 -178 1 -185 20 -185 17 0 20 7 20 50 l0 50 58 0 c63 0
85 -13 118 -70 12 -20 26 -30 42 -30 23 0 23 0 5 30 -9 17 -27 43 -39 58 l-22
27 35 30 c26 23 36 40 40 74 13 98 -55 151 -195 151 l-82 0 0 -185z m190 130
c35 -18 50 -43 50 -85 0 -60 -63 -96 -155 -88 l-40 3 -3 79 c-2 44 -1 85 2 93
7 18 109 17 146 -2z"/>
<path d="M1792 2019 c-65 -32 -97 -87 -97 -164 0 -50 5 -69 28 -103 34 -53 90
-82 157 -82 92 0 153 47 181 138 24 81 -18 174 -96 212 -54 26 -119 25 -173
-1z m165 -39 c40 -24 66 -73 66 -125 0 -156 -209 -203 -273 -62 -11 23 -20 51
-20 62 0 38 38 104 72 125 43 26 113 26 155 0z"/>
<path d="M2320 1855 c0 -177 1 -185 20 -185 18 0 20 8 22 140 l3 140 53 -69
c79 -104 71 -103 143 -11 l64 80 3 -140 c2 -132 4 -140 22 -140 19 0 20 8 20
185 0 111 -4 185 -10 185 -5 0 -43 -43 -85 -95 -41 -52 -79 -95 -83 -94 -4 0
-40 43 -80 95 -40 52 -77 94 -83 94 -5 0 -9 -76 -9 -185z"/>
<path d="M2992 1863 c-40 -98 -72 -182 -72 -186 0 -5 10 -7 21 -5 17 2 32 30
77 141 31 75 59 137 62 137 3 0 30 -63 60 -140 48 -122 58 -140 78 -140 12 0
22 2 22 4 0 20 -151 362 -161 364 -9 1 -38 -58 -87 -175z"/>
<path d="M3480 1855 c0 -177 1 -185 20 -185 18 0 20 8 22 140 l3 141 105 -141
c57 -77 110 -140 117 -140 10 0 13 41 13 185 0 177 -1 185 -20 185 -18 0 -20
-8 -22 -142 l-3 -143 -105 142 c-58 78 -111 142 -117 143 -10 0 -13 -43 -13
-185z"/>
<path d="M1872 1423 c2 -66 7 -98 16 -101 8 -2 12 10 12 42 l0 46 45 0 c33 0
45 4 45 15 0 11 -12 15 -45 15 -41 0 -45 2 -45 25 0 23 3 25 50 25 38 0 50 4
50 15 0 12 -14 15 -65 15 l-66 0 3 -97z"/>
<path d="M2152 1423 c2 -66 7 -98 16 -101 9 -3 12 21 12 97 0 84 -3 101 -15
101 -13 0 -15 -15 -13 -97z"/>
<path d="M2350 1420 l0 -101 62 3 c76 4 92 25 21 30 l-48 3 -3 83 c-2 64 -6
82 -17 82 -12 0 -15 -19 -15 -100z"/>
<path d="M2600 1420 c0 -82 3 -100 15 -100 12 0 15 14 15 68 l1 67 33 -38 33
-37 29 37 29 38 5 -64 c3 -39 10 -66 18 -69 9 -3 12 21 12 97 0 59 -4 101 -10
101 -5 0 -24 -20 -42 -45 -18 -24 -36 -44 -40 -45 -4 0 -23 20 -44 45 -20 25
-40 45 -45 45 -5 0 -9 -45 -9 -100z"/>
<path d="M2948 1509 c-22 -12 -24 -62 -4 -78 8 -7 30 -15 50 -18 48 -8 67 -30
41 -49 -25 -18 -45 -18 -74 2 -14 10 -26 13 -32 7 -14 -14 23 -43 63 -49 27
-5 40 -1 64 19 25 22 27 28 19 53 -10 28 -25 36 -88 49 -20 4 -27 11 -25 23 4
20 48 28 77 13 14 -8 22 -8 27 0 18 30 -77 52 -118 28z"/>
</g>
</svg>
